<?xml version="1.0" encoding="UTF-8"?>
<svg version="1.1" viewBox="0 0 1376 1572" width="344" height="393" xmlns="http://www.w3.org/2000/svg">
<path transform="translate(629)" d="m0 0h118l1 2-4 1 47 4 24 4 17 5 15 4 29 6 27 8 20 6v2l12 5 35 12 16 6 16 8 22 10 1 3 4 2v2l5 2 13 9 13 5 3 3 4 2v2l4 1 3 3 5 2 6 4 10 8 20 14 8 7 14 13 9 6 11 8 1 3 4 2 12 15 5 5 7 8 8 8v2l4 2 3 4v2l5 2 6 7 4 4 2 5v6h6l6 8 7 6 4 6 3 6 2 6 6 2 4 3 1 5h2l2 6 5 4 3 5 3 3 8 16 9 14 13 24 15 33 8 16 8 18 7 18 17 57 3 12 3 16 5 19 2 19 2 7 4 17v164l-1 2-4 1-9 62-3 3-2 1-1 11-4 17-10 34-7 20-6 15-5 11-7 20-8 16h-3l-1 7-2 1-1 6-4 9-4 8-6 1 1 5-5 8-3 4-3 5-6 9-9 16-5 8-6 2 1 3-4 4h-2l1 6-3 3-1 5-9 2h-5l2 4-1 4h-3l3 4-6 5-4-1v3h5v2l-7 1-4 3 1 3-3 3-6 1 1 5-6 3-3 6-5 3-3 5-5 5-3 4-10 1v2l3 1v2l-5 2h2v2l-4-1-1 1 3 1-1 3-4 2-5 1 2 1-2 4-5 2-4-1 1 5-3 4-7 1 2 4h-2l-1 4h-8l5 3v2h-6v2h-3l2 5 8 4-1 4 3 3h2l1 5 5 2 3 3 4 6 3 3 4 7 1 4 5 2 7 8 5 8 3 4v2l4 2 10 11 5 5 12 16 3 3 1 3 6 4 1 4 5 5 1 3 5 3v2h2l1 3 7 4v3 4l3 1-2 4 10 3 3 5 5 4 1 4v8l-4 3-3 2v3l-6 3-4 1 2 3-8 4-6 2v3l-8 3-3 5-10 5-5 5-9 5-5 4-3 2-3 3-11 4-4 1 2 1v2l-9 3-2 2v3l-7 3-8 1-1 4-10 5h-2l-2 4-11 7-19 6-8 5-9 4-13 5-4 1 3 2-18 6v2l-24 9-18 8-38 12-15 5-27 5-32 8 10-2h7l-4 2-7 2v1l-25 2h1 8v2l-18 3-28 3-8 1h-9v3l-12 2-33 3-14 1-5 1h-173l-26-4-38-8-52-10-72-18-25-8-19-7-29-12-13-6-15-6-33-15-19-9-13-8-28-14-21-12-4-3 1-5-4-1-7-3-11-8-6-4-12-5-12-8-10-8-3-6h-7l-4-4 1-2-6-4-1-3 2-1v-6l5-5 3-5 6-6 1-3 7-2v-6l5-4 2-5 3-2 3-6 3-2 3-6 3-1 2-6 4-4 7-9 4-6 3-5 9-4 1-3 3-3v-6l4-1 5-5 8-11 11-15 5-2 2-5 8-11 6-7 5-5 3-7-12-9-28-28-8-7-10-10-8-10v-2l-5-2-9-10-4-6-5-7-6-5-2-3-5-2-8-13-1-5 1-2-4 1-2-4-12-20-8-11-3-2-4-7-9-16-9-14-18-36-5-8-10-24-5-13-7-18-2-6-3-2-9-36-6-27-2-7-2-15-4-13-3-21-4-31h-2l-1-4v-131l4-2 3-22 2-24 4-19 4-27 2-4h4l5-25h2v-7l4-8h2v-7l1-1 3-22 1-3 2-1-1-5 6-1 3-8 3-9 2-7 3-2v-5l5-1v-11l2-5 4-1 3-9 3-7 6-12 1-3 4-1 2-6 3-4 3-6 8-15 6-4v-2l-2-1 4-2 1-7 3-1 2-2v-2-3h6v-2h3l-1-6 4-1v-6l6-3-1-5 3 1 4-4v-6h3v-5l4-3 7-2v-5l5-3v-4l8-4 2-6 5-2-1-5 6-2 3-7 3-2 1-5 9-3 1-5 9-2-1-6 5-3 1-5 12-3v-5l8-3-1-5 5-1 5-2h3l-1-4 7-3 5-1v-5l5-2 1-7 7-1 8-2v-4l12-4-2-3 9-3v-2l3-1-5-2 3-2 4 1v-2h4v-2l3-1-4-3 9-1 8-1v-6l6-4-1-3 7-1 9-3 2-1-2-1v-2l7-2 6-2v-4l18-5 1-2 11-4h2l-1-3 2-2 21-4 5-1-7-2v-1l8-1 2 1v-2l12-4 1-3 16-4 1-3 13-3 9-3 8-3 20-6 31-7 3-2 25-5 36-6 18-2 26-2-4-1zm-58 19m62 20-24 2-9 2 1 2 35-4 5-1v-1zm111 1v1l24 3 10 1h11v-1l-22-3zm-146 4m192 1v1h6v-1zm6 1v1h6v-1zm6 1v1l43 9 17 4 4-1-15-4-31-7-12-2zm-229 1m-7 1v1h6v-1zm-7 1-7 2 4 1 10-2v-1zm-26 6-9 1v1h10l2-2zm333 5 3 2 22 6 4-1-21-6zm29 8 3 2 19 6 4-1-15-5-7-2zm-422 4-1 2 4-2zm-85 2m55 0m478 2m3 1m2 1m3 1m-474 0-6 2-2 3 10-3 2-2zm-19 7-24 12v2l6-2 15-7 8-4v-1zm-27 14m-2 1m-3 1-10 4-16 9 3 1 21-11 4-2zm-28 14-1 2 3-1zm-4 2-1 2 4-2zm-3 2-1 2 3-1zm-29 2m26 0-1 2 3-1zm-3 2m-2 1m-2 1-1 2 3-1zm-4 2-2 3 5-2zm697 1m-701 2m707 0m-708 1m710 0m-712 1m-2 1m-2 1-4 4 5-2 1-2zm-29 2m23 2m-1 1m-1 1m-4 2-1 2 3-1zm749 1m-752 1m753 0 4 4-2-4zm-754 1m-4 3m-4 2-1 2 3-1zm771 1 1 2 2-1zm-774 1-1 2 3-1zm-2 2m-2 1-1 2 3-1zm-3 2-6 5h3l5-5zm-7 6m-1 1m-2 1m-1 1m-2 1-1 2 3-1zm-2 2m-1 1m-2 1m-5 3-7 6h3l6-5zm-9 7-5 4v2l4-2 3-4zm-6 6m-1 1m-2 1m-2 1-3 4 4-2 1-2zm-16 2 1 2zm-5 1 3 2v-2zm7 5-2 6-2 5 6-5 3-5zm5 0m-52 49-2 6 6-5zm-3 6m-1 1v3zm-2 3m-5 5-2 4 3-2zm-3 4m-3 3-4 4-4 6v3l7-8 3-5zm-25 11m-1 1m-8 8 2 2v-2zm-34 9m42 4-3 5 1 2 4-7zm-50 4m46 3-2 4 3-2zm1089 3 1 2 5 1v-2zm-1092 1m-41 7m16 1 1 3 1-3zm16 5-7 10 1 2 7-9zm-27 9m1 1m18 2m-8 11-2 4 1 3 2-4zm-3 7v3zm-2 3 1 2zm-27 2 2 2v-2zm26 0 1 2zm-1 2 1 2zm-1 2-3 5 1 2 3-5zm-4 7 1 2zm-1 2 1 2zm-35 2m1 1m33 0m-1 2m-1 1 1 2zm-1 2 1 2zm-1 2 1 2zm-1 2-5 8-8 18-3 6 1 3 16-33zm-17 35 1 2zm-1 2-5 9-1 8 3-4 4-10zm-7 17 1 2zm-1 2 1 4zm-1 4 1 2zm-1 2-1 5 2-3zm-7 1m5 4 1 3zm-1 3 1 2zm-1 3m1252 6m-1257 7 1 2zm-42 1 1 3v-3zm41 3 1 2zm-1 2 1 3zm-1 3 1 3zm-1 4 1 2zm-1 3 1 3zm-1 3 1 3zm-1 3-1 6 2-3zm-2 6-1 7 2-3zm-2 7 1 4zm-1 4 1 4zm-1 4-5 18-1 9 2-2 5-20v-5zm-9 42-2 2-3 18-1 13 2-2 4-25 1-6zm-8 3m0 54 1 4zm-1 6v6h1v-6zm-1 7-1 8h2v-8zm-1 9-2 7v9l2-4 1-3v-9zm1300 22-1 10-2 39-2 22v14l2-2 3-34 1-24v-25zm-1340 80 1 2zm1332 28-1 1-3 18-1 4 2 1 4-17v-7zm-1317 36m1309 7-1 6 2-2zm-2 8 1 3zm-1 4 1 2zm10 4 1 2 1-2zm-12 5 1 2zm10 4 1 2 1-2zm-11 1m-1 2 1 4zm-1 4-11 35-11 30-13 30-9 20-1 5 3-4 7-14 12-28 17-45 7-25zm5 46-2 9 2-2 3-5v-2zm-3 9-1 5 2-2zm-2 5-1 7 2-2v-5zm-2 7m-1 2v7h1v-7zm-1 8 1 2zm-1229 28 1 2zm5 14m1 1v2l2-1zm1181 0-1 4 2-4zm20 1m-22 3-2 5 3-3zm-1158 2 3 6 4 4-2-6-3-4zm1155 3 1 2zm-1 2m-1 1 1 2zm-1 2 1 2zm-1145 2 2 6 7 11 1-2-8-14zm1144 0m-1 1 1 2zm-1 2 1 2zm-1 2 1 2zm-1 2m-1 1 1 2zm-1 2 1 2zm-1 2-13 22-18 27-10 14-8 10-7 9-4 5 1 2 10-11 8-11 4-5 11-16 9-14 9-13 9-17zm-1127 5 2 6 9 14 1-2-11-18zm1145 7 1 2 2-1zm3 2m-1136 11m1 1m2 3m2 3m1 1m1 2m2 3m1 1 1 2zm1 2 2 5 2 1-2-5zm4 6 1 2zm1 2m1 1m1 1 1 3v-3zm-27 1m1 1 1 2zm28 1m1 1 1 3v-3zm2 3m2 3m1 1 1 3v-3zm2 3m1 1 1 3v-3zm2 3 2 4 4 4-2-5zm6 8 2 4v-3zm3 4m1 1 2 4 5 5-2-4zm1013 7-4 6 3-1 2-5zm-1006 2m1 1 2 4v-3zm1e3 3m-997 1m996 0m-995 1 2 4v-3zm994 0m-991 4 2 4 14 15 35 35 2-1-4-5-8-7-30-30-7-8-2-3zm990 7 1 2 1-2zm31 7m-47 1m-1 1-6 6 1 2 6-6zm-966 8m958 0 1 2 1-2zm-1 2m-1 1m-1 1-7 7h3l5-5zm-8 8m-1 1m-1 1-3 4 4-2zm-930 2m926 2m-1 1m-1 1m-1 1m-2 1-9 9h3l8-7v-2zm-890 8v2l8 7h3l-8-8zm879 2-11 10h3l10-9zm-868 8v2l4 2-2-4zm856 3m-1 1m-1 1m-3 2m-841 1m839 0-2 3 4-2zm-838 1m1 1 1 2 2-1zm3 2m1 1m870 0 2 2v-2zm8 0v2l3 1 1-3zm-877 1m1 1 3 4 2-1-3-3zm870 0 1 2zm-865 4m831 4 2 2v-2zm-863 1m839 39 2 2 1-2zm50 1m-26 7v2h2v-2zm-30 8v3h2l-1-3zm16 0-1 2 3-1zm-4 3m-3 2-2 1v2l4-2zm-866 3-1 2h2zm888 6 3 3-1-3zm-895 2-1 2 3-1zm926 0 1 2 2-1zm-26 5m1 1m1 1 2 2v-2zm2 2m-906 15m919 1m1 2m1 1m1 1 1 2zm1 2m1 1m1 1 1 2zm1 2m1 1m1 1 2 4 9 12 1-2-1-4-5-4-3-5zm11 9m1 7m6 8 1 2zm1 2m1 1m1 1m2 3m1 1m1 1m1 1 2 4 9 11 9 12 7 9v-3l-9-13-4-6-7-8-5-5zm-1e3 1m21 6-1 6 4-4v-2zm-2 6m-1 1-2 3 3-1zm-63 10m1084 1 2 2 1-2zm0 3m-2 3m-1 1m-1 1m-1 1m-1 1m-4 2m1 1v5h2l-1-5zm-1030 4 1 2 2-1zm1029 1m-1026 1m1025 0m-1024 1m1020 2m-1015 1m1014 0m15 0 1 3h2l-1-3zm-1028 1m1011 0-1 2 3-1zm-1009 1m1 1m1e3 0-4 4 5-2 1-2zm-1e3 1 1 2 2-1zm3 2m1 1m994 0-7 5 2 1 7-5zm-992 1v2l19 12 2-1-15-10-4-3zm984 5m-2 1m-1 1m-1 1m-2 1m33 0v2h2v-2zm-34 1m-2 1m-2 1m-1 1m-951 1 1 2 2-1zm950 0m-2 1m-945 1 1 2 2-1zm943 0-10 7-3 3 5-2 9-6 1-2zm-940 2 4 4 2-1-4-3zm6 4m2 1m1 1 1 2 2-1zm3 2 4 4 2-1-3-3zm913 0-6 4 2 1 6-4zm-907 4m899 1m-2 1-3 3 5-2zm-5 3-1 2 3-1zm-3 2m-2 1-7 4 2 1 7-4zm-9 5m-2 1m-2 1m-1 1m-3 1-1 2 3-1zm-4 2-1 2 3-1zm-3 2m-2 1m-2 1m-3 2m82 3m-90 1m-15 8m-1 1m46 13m-53 1m3 0m-6 1m-1 1m-770 6m3 1 4 1zm4 1m5 1m3 1 4 1zm4 1v1h5v-1zm5 1 4 1zm4 1 4 1zm4 1 4 1zm6 1m4 1m644 6m-4 1m-25 8m-480 7 4 1zm4 1 4 2 9 2h5l-4-2-9-2zm19 4 4 1zm4 1 4 1zm4 1 4 2 46 9 13 2h8v-1l-41-7-25-5zm-50 9m4 0 4 1zm7 1 4 1zm111 3v1h5v-1zm9 1 4 1zm8 1m8 1m371 0-1 2h2zm-367 1v1h5v-1zm6 1v1l15 2h7v-1l-14-2zm271 30 4 1z" fill="#0001E8"/>
<path transform="translate(629)" d="m0 0h118l1 2-4 1 47 4 24 4 17 5 15 4 29 6 27 8 20 6v2l12 5 35 12 16 6 16 8 22 10 1 3 4 2v2l5 2 13 9 13 5 3 3 4 2v2l4 1 3 3 5 2 6 4 10 8 20 14 8 7 14 13 9 6 11 8 1 3 4 2 12 15 5 5 7 8 8 8v2l4 2 3 4v2l5 2 6 7 4 4 2 5v6h6l6 8 7 6 4 6 3 6 2 6 6 2 4 3 1 5h2l2 6 5 4 3 5 3 3 8 16 9 14 13 24 15 33 8 16 8 18 7 18 17 57 3 12 3 16 5 19 2 19 2 7 4 17v164l-1 2-4 1-9 62-3 3-2 1-1 11-4 17-10 34-7 20-6 15-5 11-7 20-8 16h-3l-1 7-2 1-1 6-4 9-4 8-6 1 1 5-5 8-3 4-3 5-6 9-9 16-5 8-6 2 1 3-4 4h-2l1 6-3 3-1 5-9 2h-5l2 4-1 4h-3l3 4-6 5-4-1v3h5v2l-7 1-4 3 1 3-3 3-6 1 1 5-6 3-3 6-5 3-3 5-5 5-3 4-10 1v2l3 1v2l-5 2h2v2l-4-1-1 1 3 1-1 3-4 2-5 1 2 1-2 4-5 2-4-1 1 5-3 4-7 1 2 4h-2l-1 4h-8l5 3v2h-6v2h-3l2 5 8 4-1 4 3 3h2l1 5 5 2 3 3 4 6 3 3 4 7 1 4 5 2 7 8 5 8 3 4v2l4 2 10 11 5 5 12 16 3 3 1 3 6 4 1 4 5 5 1 3 5 3v2h2l1 3 7 4v3 4l3 1-2 4 10 3 3 5 5 4 1 4v8l-4 3-3 2v3l-6 3-4 1 2 3-8 4-6 2v3l-8 3-3 5-10 5-5 5-9 5-5 4-3 2-3 3-11 4-4 1 2 1v2l-9 3-2 2v3l-7 3-8 1-1 4-10 5h-2l-2 4-11 7-19 6-8 5-9 4-13 5-4 1 3 2-18 6v2l-24 9-18 8-38 12-15 5-27 5-32 8 10-2h7l-4 2-7 2v1l-25 2h1 8v2l-18 3-28 3-8 1h-9v3l-12 2-33 3-14 1-5 1h-173l-26-4-38-8-52-10-72-18-25-8-19-7-29-12-13-6-15-6-33-15-19-9-13-8-28-14-21-12-4-3 1-5-4-1-7-3-11-8-6-4-12-5-12-8-10-8-3-6h-7l-4-4 1-2-6-4-1-3 2-1v-6l5-5 3-5 6-6 1-3 7-2v-6l5-4 2-5 3-2 3-6 3-2 3-6 3-1 2-6 4-4 7-9 4-6 3-5 9-4 1-3 3-3v-6l4-1 5-5 8-11 11-15 5-2 2-5 8-11 6-7 5-5 3-7-12-9-28-28-8-7-10-10-8-10v-2l-5-2-9-10-4-6-5-7-6-5-2-3-5-2-8-13-1-5 1-2-4 1-2-4-12-20-8-11-3-2-4-7-9-16-9-14-18-36-5-8-10-24-5-13-7-18-2-6-3-2-9-36-6-27-2-7-2-15-4-13-3-21-4-31h-2l-1-4v-131l4-2 3-22 2-24 4-19 4-27 2-4h4l5-25h2v-7l4-8h2v-7l1-1 3-22 1-3 2-1-1-5 6-1 3-8 3-9 2-7 3-2v-5l5-1v-11l2-5 4-1 3-9 3-7 6-12 1-3 4-1 2-6 3-4 3-6 8-15 6-4v-2l-2-1 4-2 1-7 3-1 2-2v-2-3h6v-2h3l-1-6 4-1v-6l6-3-1-5 3 1 4-4v-6h3v-5l4-3 7-2v-5l5-3v-4l8-4 2-6 5-2-1-5 6-2 3-7 3-2 1-5 9-3 1-5 9-2-1-6 5-3 1-5 12-3v-5l8-3-1-5 5-1 5-2h3l-1-4 7-3 5-1v-5l5-2 1-7 7-1 8-2v-4l12-4-2-3 9-3v-2l3-1-5-2 3-2 4 1v-2h4v-2l3-1-4-3 9-1 8-1v-6l6-4-1-3 7-1 9-3 2-1-2-1v-2l7-2 6-2v-4l18-5 1-2 11-4h2l-1-3 2-2 21-4 5-1-7-2v-1l8-1 2 1v-2l12-4 1-3 16-4 1-3 13-3 9-3 8-3 20-6 31-7 3-2 25-5 36-6 18-2 26-2-4-1zm-58 19m62 20-24 2-9 2 1 2 35-4 5-1v-1zm46 1-41 2-31 3-36 6-31 6-36 10-23 7-35 13-6 2 1-2h-5l-24 12v3l-6 2-2-1-10 4-19 11-9 5-12 7-10 6-4 4h3l-27 18h-4l-8 6-2 4-5 1-3 4-5 5v-1h-3l-13 10v2l1 1-10 9-8 6 2-4-5-1-2 6-2 5v1l-10 9-5 5-5 4-7 8-11 11h-5l-5 8 1 3-10 11-4 1-3 3-4 6-2 6-12 15-2 2-3 1-5 8 1 3-9 12-3 1-6 9-1 5-7 12-1-4-8 16-5 9v4l-4 4-7 12-8 18-7 15-3 5-3 10 2 10-3-1-2 9h-2l-5 15-3 3-1 9-2 1-5 15-8 30-1 9 1 3-7 39-3 23-3 36v64l3 36 4 33 9 43 8 32 10 31 8 22 11 26 13 28 5 10h-3l8 13 14 24 7 10 5 5 1 3 3 3 2 6 12 16h2l1 5 13 17 8 10 11 14 14 15 35 35h2v2l8 7 3 1v2l4 2v-3l9 8v3l8 7 2-1v-1l13 11 15 11 27 18 13 8 17 10 16 9 16 8 26 12 27 11 28 10 36 11 33 8 38 7 32 4 36 3 25 1h30l30-2 38-4 38-6 32-7 36-10 18-6 22-8 14-6 13-5 11-5 16-7 22-12 19-10 15-9 22-14 18-13 11-8 13-11 7-5 4-1 4-6 3-2h3l10-9 8-7 5-5 6-5 5-5 15-16v-3l4-5 5-5 8-9 4-2 5-5 9-11 10-13 4-5 11-16 9-14 9-13 12-23 12-20 8-16 13-29 18-47 9-32v-8l9-40 3-6 3-14v-7l-1-4 2-18 3-3 3-34 1-24v-25h-1l-1 10-2 39v-20l1-3-1-43-3-35-4-30-4-24-8-35-12-40-7-20-8-21-11-25-15-30-13-23-12-20-11-17-12-16-8-11-13-16-9-11-13-15-8-9h-2l-2-4-36-36-10-8-16-13-12-9-14-11-20-14-17-11-18-11-26-14-23-12-25-11-30-12-37-12-33-9-33-7-39-6-32-3-36-2zm65 0v1l24 3 10 1h11v-1l-22-3zm-146 4m192 1v1h6v-1zm6 1v1h6v-1zm6 1v1l43 9 17 4 4-1-15-4-31-7-12-2zm-229 1m-7 1v1h6v-1zm-7 1-7 2 4 1 10-2v-1zm-26 6-9 1v1h10l2-2zm333 5 3 2 22 6 4-1-21-6zm29 8 3 2 19 6 4-1-15-5-7-2zm-422 4-1 2 4-2zm-85 2m55 0m478 2m3 1m2 1m3 1m-474 0-6 2-2 3 10-3 2-2zm-46 21m-2 1m-67 21m712 7m6 2m2 1m-745 5m23 2m-1 1m-1 1m-4 2-1 2 3-1zm749 1m-752 1m753 0 4 4-2-4zm-754 1m-4 3m-4 2-1 2 3-1zm771 1 1 2 2-1zm-774 1-1 2 3-1zm-2 2m-15 11m-8 6m-20 16m-1 1m-2 1m-2 1-3 4 4-2 1-2zm-16 2 1 2zm-5 1 3 2v-2zm12 5m-58 59m-5 5-2 4 3-2zm-3 4m-28 14m-1 1m-8 8 2 2v-2zm-34 9m-8 8m1135 6 1 2 5 1v-2zm-1092 1m-41 7m16 1 1 3 1-3zm-11 14m1 1m18 2m-40 23 2 2v-2zm-16 15m1 1m33 0m-32 69 1 2zm-1 2-1 5 2-3zm-7 1m5 4 1 3zm-1 3 1 2zm-1 3m1252 6m-1257 7 1 2zm-42 1 1 3v-3zm38 12 1 2zm-18 72-2 2-3 18-1 13 2-2 4-25 1-6zm-8 3m0 54 1 4zm-1 6v6h1v-6zm-1 7-1 8h2v-8zm-1 9-2 7v9l2-4 1-3v-9zm-40 102 1 2zm15 64m1309 7-1 6 2-2zm-2 8 1 3zm-1 4 1 2zm10 4 1 2 1-2zm-12 5 1 2zm10 4 1 2 1-2zm-11 1m3 52-2 9 2-2 3-5v-2zm-3 9-1 5 2-2zm-2 5-1 7 2-2v-5zm-2 7m-1 2v7h1v-7zm-1 8 1 2zm-1229 28 1 2zm5 14m1 1v2l2-1zm1201 1m-18 39 1 2 2-1zm3 2m-1133 15m4 6m-16 17m1 1 1 2zm1054 55 1 2 1-2zm31 7m-47 1m-967 9m15 16m898 27m-1 1m-1 1m-844 3m1 1m875 4 2 2v-2zm8 0v2l3 1 1-3zm-6 2 1 2zm-865 4m831 4 2 2v-2zm-863 1m839 39 2 2 1-2zm50 1m-26 7v2h2v-2zm-30 8v3h2l-1-3zm16 0-1 2 3-1zm-4 3m-3 2-2 1v2l4-2zm-866 3-1 2h2zm888 6 3 3-1-3zm-895 2-1 2 3-1zm926 0 1 2 2-1zm-26 5m1 1m1 1 2 2v-2zm2 2m-906 15m919 1m1 2m1 1m1 1 1 2zm1 2m1 1m1 1 1 2zm1 2m1 1m1 1 2 4 9 12 1-2-1-4-5-4-3-5zm11 9m1 7m6 8 1 2zm1 2m1 1m1 1m2 3m1 1m1 1m1 1 2 4 9 11 9 12 7 9v-3l-9-13-4-6-7-8-5-5zm-1e3 1m21 6-1 6 4-4v-2zm-2 6m-1 1-2 3 3-1zm-63 10m1084 1 2 2 1-2zm0 3m-2 3m-1 1m-1 1m-1 1m-1 1m-4 2m1 1v5h2l-1-5zm-1030 4 1 2 2-1zm1029 1m-1026 1m1025 0m-1024 1m1020 2m-1015 1m1014 0m15 0 1 3h2l-1-3zm-1028 1m1011 0-1 2 3-1zm-1009 1m1 1m1e3 0-4 4 5-2 1-2zm-1e3 1 1 2 2-1zm3 2m1 1m994 0-7 5 2 1 7-5zm-992 1v2l19 12 2-1-15-10-4-3zm984 5m-2 1m-1 1m-1 1m-2 1m33 0v2h2v-2zm-34 1m-2 1m-2 1m-1 1m-951 1 1 2 2-1zm950 0m-2 1m-945 1 1 2 2-1zm943 0-10 7-3 3 5-2 9-6 1-2zm-940 2 4 4 2-1-4-3zm6 4m2 1m1 1 1 2 2-1zm3 2 4 4 2-1-3-3zm913 0-6 4 2 1 6-4zm-907 4m899 1m-2 1-3 3 5-2zm-5 3-1 2 3-1zm-3 2m-2 1-7 4 2 1 7-4zm-9 5m-2 1m-2 1m-1 1m-3 1-1 2 3-1zm-4 2-1 2 3-1zm-3 2m-2 1m-2 1m-3 2m82 3m-90 1m-15 8m-1 1m46 13m-53 1m3 0m-6 1m-1 1m-770 6m3 1 4 1zm4 1m5 1m3 1 4 1zm4 1v1h5v-1zm5 1 4 1zm4 1 4 1zm4 1 4 1zm6 1m4 1m644 6m-4 1m-25 8m-480 7 4 1zm4 1 4 2 9 2h5l-4-2-9-2zm19 4 4 1zm4 1 4 1zm4 1 4 2 46 9 13 2h8v-1l-41-7-25-5zm-50 9m4 0 4 1zm7 1 4 1zm111 3v1h5v-1zm9 1 4 1zm8 1m8 1m371 0-1 2h2zm-367 1v1h5v-1zm6 1v1l15 2h7v-1l-14-2zm271 30 4 1z" fill="#FB9B3D"/>
<path transform="translate(703,254)" d="m0 0 33 2 33 5 26 6 25 7 28 10 18 8 19 9 16 9 19 12 17 12 13 10 10 8 12 11 8 8 2 1v2l4 2 8 8 7 8 11 12 13 17 8 11 10 15 14 24 8 15 11 24 10 28 10 35 7 36 2 15 1 15v59l-4 34-7 36-7 24-9 26-5 12-7 16-10 19-14 25-13 19-8 11-9 11-18 21h-2l-2 4-14 14-11 9-11 10-14 11-13 10-20 12-13 8-15 8-28 13-22 9-35 10-26 6-30 4-19 2-33 1-33-2-32-4-35-7-26-8-25-9-24-11-24-12-20-12-19-13-13-10-11-9-10-9-13-12-13-13-7-8-12-14-13-16-20-30-11-18-1-5 727-1-8-14-9-15-10-17-11-19-14-24-16-28-14-24-10-18-11-19-9-15-20-34-15-26-17-29-9-15-9-16-14-25-16-26-14-25-15-27-13-21-12-21-10-17-6-10-15-27-12-20-13-22-10-17-6-11-10-18-2-5z" fill="#FC9B3C"/>
<path transform="translate(275,1234)" d="m0 0 16 8 42 23 34 18 23 11 20 8 28 12 16 6 40 13 34 9 37 8 35 6 37 5 13 1 27 1h46l24-1 42-5 30-5 30-6 32-8 31-9 25-9 43-17 27-12 19-10 23-11 14-8 15-9 11-6 14-9 4 1 8 10 3 2 2 6h2l4 7 11 13 11 15 13 16 3 4v2l4 2 1 3 5 5 12 14 11 15 2 5 2 1v5l-7 6-4 4-14 10-7 3-5 5-20 13-20 12-11 6-10 3-2 1-1 3-10 4-16 8-17 8-24 10-32 13-49 16-30 8-24 6-34 7-52 8-29 3-36 3-17 1h-66l-48-3-29-3-41-5-44-8-31-7-30-8-36-11-38-13-32-13-24-10-16-8-15-8-19-9-18-10-7-4-6-2-27-18-14-9-5-5-11-9 2-4 9-11 6-7 2-5 5-5 11-13 8-10 13-16 7-9 10-12 11-14 9-10 8-11z" fill="#0001E8"/>
<path transform="translate(679,254)" d="m0 0h15l-6 11-10 17-10 16-12 19-13 22-12 20-13 20-24 40-12 19-9 15-16 26-9 15-12 19-13 21-14 23-8 13-12 19-13 22-12 19-12 20-17 28-13 21-12 19-16 26-10 17-11 17-9 15-22 36-11 19-6 8h-2l-1 2-6-12-6-14-6-17-6-16-9-29-7-33-4-33-1-26v-19l1-31 3-23 8-37 9-32 11-28 8-18 10-19 10-18 7-11 14-20 11-14 9-11 12-13 7-7h2l2-4 13-12 11-9 11-10 18-13 18-12 20-12 14-8 32-14 28-10 20-6 27-6 33-5z" fill="#FC9B3C"/>
<path transform="translate(535,547)" d="m0 0h99l18 2 12 4 10 7 8 9 5 9 5 13 4 19 2 17v47l-5 30-5 15-9 15-10 10-11 5-13 3h-45v94l-1 1h-64l-1-39v-170z" fill="#FCFCFB"/>
<path transform="translate(790,539)" d="m0 0h30l16 4 12 6 10 8 9 10 8 14 5 14 5 25 2 16v18l-65 1-2-1-1-27-2-15-4-8-7-3-5 1-5 5-3 11-1 6v145l4 18 5 5h8l4-2 4-9 2-11 2-33 66-1 1 1-1 19-2 20-6 25-7 16-6 10-8 10-10 8-12 6-16 4h-29l-16-4-14-7-12-11-9-13-8-17-5-21-2-14-2-39v-73l2-33 4-22 5-16 6-12 10-13 10-9 15-8z" fill="#FCFCFB"/>
<path transform="translate(787,1216)" d="m0 0h2l1 5 3 2-1 13-3 4-2 6-1 5h-2l1 4h2l4-8 4-9 7-13 5-1 1 1v10l-3 9-6 14-7 13-9 11-11 1 1-6-2-1-1 2-11 6-9 10-4 2h-6l-3-2-1 6-9 3-31 1-26-1-5-2-10-2-13-6-10-7-1-4-10-5-7-7-8-7-7-11-6-10-2-4v-12l1-3 8 1 1 10 1 4 3 8 5 9 2 1 5-1-1-7-3-7-3-6-1-6 1-1h161l-1 5-5 10-8 11-8 8-6 7-11 7-19 5-5 2 1 3 13 1 12 2 7 1-1-9 7 1 6 1v-10l-1-5 10-4 7-10 3-9 2-1 2-4h2l2-6 4-9z" fill="#0000C0"/>
<path transform="translate(383,1324)" d="m0 0 6 1 28 8 6 1v7l-11 57-6 25-1 6 4-7 23-46 10-19 7-13 7 1 27 8 6 1-1 7-12 34-11 33-13 37-4 11-3 1-20-6-1-4 9-24 13-37 10-26 1-8-18 35-24 44-7 13-2 1-22-6-3-2 2-12 12-70 3-19 1-2h-2l-3 10-11 36-14 41-3 10-3 1-20-6-2-1 1-5 11-30 10-30 15-43z" fill="#FCFCFB"/>
<path transform="translate(863,1361)" d="m0 0h8l10 3 7 8 5 13 19 74v11l-4 6-7 6-14 5-28 7-10 1-3-9-12-45-15-56-3-11v-3l13-3 27-6z" fill="#FCFCFB"/>
<path transform="translate(632,1377)" d="m0 0 32 1 14 1 9 3 8 7 4 6 1 4-1 24-2 9-6 5-8 1 3 3 8 5 5 7v54l-1 1-23-1-4-2 1-29v-20l-8-4-8-1-2 35-1 20h-25v-28l3-91z" fill="#FCFCFB"/>
<path transform="translate(973,1328)" d="m0 0 5 1 8 14 11 18 13 21 15 25 14 23 5 8v4l-23 7-4-1-9-17-6 1-12 4h-2l5 19v4l-18 6-9 1-7-38-11-56-6-31 4-3 23-8z" fill="#FCFCFB"/>
<path transform="translate(677,1113)" d="m0 0h25l15 3 19 9 12 9 10 10 10 17 4 8-1 1h-162l3-8 8-13 7-9 10-9 18-11 12-5z" fill="#FC9C3E"/>
<path transform="translate(632,83)" d="m0 0 4 1 4 21 11 61 2 16-7 2-11 1-2-10-6-32-5-30-1-4v21l1 31v26l-16 4-5-1-15-43-8-24-3-5 2 11 12 61-1 4-12 2h-6l-4-21-12-66-1-5v-7l15-3 16-2 4 10 14 44 4 13v-19l-2-41v-11z" fill="#FCFCFB"/>
<path transform="translate(532,1364)" d="m0 0 22 3 33 5 1 3-4 20h-8l-18-3h-4l-5 25 25 3 4 1-2 16-1 6h-11l-19-3-2 15-3 17 11 1 19 3-1 9-3 13-3 1-50-8-3-1 1-9 8-48 10-58 2-10z" fill="#FCFCFB"/>
<path transform="translate(696,1089)" d="m0 0 3 4v2l12 3v2l16 4 16 8 12 5 6 5v2h2l4 5 4 4 1 4h2l4 6 1 3 4 2 1 11 6 2 1 1 1 14 3 3 3 1v5l-8 3-9 2-1-2 1-2v-11l-6-18-2-3-2 6-4 1-8-14-9-10-8-7-14-8-11-5-15-3h-25l-16 4-15 8-14 10-7 7-9 14-7 14-9-1v11l-4 3-11 3-1-7 4-11h-4l-5 1h-7l1-9 6-15 9-16 8-10 8-7 12-2 2 2-13 13h3l2 4 9-3 1-3 9-5 9-7 4-2 4 1 3 3 3-1-1-2-6-3 3-3 14-7 30-3z" fill="#0200BD"/>
<path transform="translate(504,115)" d="m0 0h9l7 3 7 11 11 27 12 29 1 5v7l-4 7-11 7-24 10-4 1-4-6-16-39-15-36-4-10v-3l28-11z" fill="#FCFCFB"/>
<path transform="translate(1187,378)" d="m0 0h8l9 6 7 11 4 12v7l-5 8-8 6-50 25-16 6-8-1-8-6-8-13-3-9v-7l3-6 8-7 20-11 21-10 16-8z" fill="#FCFCFB"/>
<path transform="translate(198,690)" d="m0 0h9l9 3 5 6 3 8 1 4v16l-4 8-5 4-16 4-52 6h-17l-5-3-5-7-4-16v-10l4-8 5-4 13-4 48-6z" fill="#FCFCFB"/>
<path transform="translate(1257,573)" d="m0 0h9l4 26v13l-4 9-6 4-20 4-45 6h-16l-7-6-4-9-4-23-1-10 6-2 53-7z" fill="#FCFCFB"/>
<path transform="translate(358,1006)" d="m0 0 5 1 11 6 12 11 4 6v9l-6 10-12 14-15 16-2 3h-2l-2 4-12 12-9 6h-8l-12-6-8-7-7-11v-7l5-10 12-14 9-9 7-8 11-12 7-7 10-6z" fill="#FCFCFB"/>
<path transform="translate(1165,742)" d="m0 0 10 2 89 18 1 4-7 28-5 10-6 6h-14l-57-12-12-4-6-5-1-3v-11l5-25z" fill="#FCFCFB"/>
<path transform="translate(1227,446)" d="m0 0 5 1 7 20 1 5-9 6-16 10-17 11-21 13-3 3 39-14 32-11h2l6 15-1 3-35 12-41 14-17 6-4-1-5-12-3-8v-5l9-7 18-11 19-12 19-11-8 1-42 15-18 6h-5l-5-13v-4l36-12 47-16z" fill="#FCFCFB"/>
<path transform="translate(718,82)" d="m0 0 27 2 1 1 7 37 6 36 1 2 1-5 2-42 2-27h17l2 1-1 21-5 70-1 9h-11l-16-1-2-3-12-63-2-10-1 3-3 60-1 10-1 1-17-1-1-1 1-18 6-81z" fill="#FCFCFB"/>
<path transform="translate(119,603)" d="m0 0 100 3 2 1v22l-1 5-16 4-41 9-19 3 4 1 21 1 37 1 13 1v17l-3 1-51-2-36-1-13-1v-15l1-11 5-3 70-14v-1l-68-2-7-1 1-17z" fill="#FCFCFB"/>
<path transform="translate(1024,1008)" d="m0 0h4l8 10 10 10 7 8 9 10 8 8 7 8 3 3v2h2l7 8 6 7-8 8-11 9-9 7-5 2h-10l-7-4-9-9-6-8-1-7 1-4-4-1h-8l-8-7-18-18v-2l-4-2-2-2 1-4 11-8 3-2h3l6 8 15 16 5 4 6-2 4-1-3-6-11-12-7-8-7-7 1-4z" fill="#FCFCFA"/>
<path transform="translate(1e3 171)" d="m0 0 5 1 9 7 13 10 6 8 2 5-1 8-7 11-7 9-6 3-9 1 4 6-1 7-9 14-13 18-2 4-15-10-2-4 9-12 11-15 2-3-1-5-4-5-4 1-13 18-10 13-4 1-13-10 1-4 10-12 12-17 16-21 10-14z" fill="#FCFCFB"/>
<path transform="translate(406,1044)" d="m0 0 4 2 12 8 1 2-4 7-16 24-1 4 7 7 4-4 11-16 10-14 5 1 12 8-2 5-6 8-13 19-14 20-11 16-10 15-3 1-22-15-8-7-5-9 1-7 5-9 9-12 3-3h11l-4-9 1-6 9-15 11-16z" fill="#FCFCFB"/>
<path transform="translate(432,144)" d="m0 0 5 1 9 10 12 16 26 34 7 9 7 10-1 3-12 5-6 2-8-11v-2l-8 2-6 4 1 6 3 7-1 5-15 7h-3l-9-27-17-54-4-12 1-5z" fill="#FCFCFB"/>
<path transform="translate(1073,226)" d="m0 0 5 1 15 14 1 5-12 18-28 40-12 17-5 7-3-1-7-8-5-4-1-3 10-11 1-3-4-2-5-5-6 1-8 7-5-1-8-8-4-3 2-4 11-8 13-9 19-14 17-12z" fill="#FCFCFB"/>
<path transform="translate(1101,912)" d="m0 0 7 6 8 8 8 7 26 24 10 10 16 14-1 5-11 16-3 3-6-2-15-7-25-11-34-15-14-6 1-5 7-10 2-3 4 1 11 5 4-1 5-7-1-4-7-7-3-2 1-5 8-11z" fill="#FCFCFB"/>
<path transform="translate(492,1097)" d="m0 0 5 2 12 5-1 4-11 21-13 23-18 34-6 9-15-8-15-9-7-8-2-5 2-9 8-16 8-13 8-7 6-1 8 2 12 5h2l11-20z" fill="#FCFCFB"/>
<path transform="translate(220,794)" d="m0 0h12l6 4 6 8 5 14v12l-4 6-5 4-12 5-30 10-28 8-8 1-8-4-6-7-4-8-2-9v-11l6-8 16-8 9-2 4 9 2 10-13 5-4 3 1 8 7-1 49-15 9-4 1-4-1-4h-7l-14 3-2-1-4-13v-5l8-3z" fill="#FCFCFB"/>
<path transform="translate(869,111)" d="m0 0h11l14 4 6 4 5 6 1 2v16l-3 7-1 1-8-1-10-3-1-1 1-13-3-2-5 1-2 4v11l12 20 4 10v13l-7 16-6 7-9 3-13-2-12-5-5-5-4-6v-12l4-12 3-1 16 5 1 5-2 4v5l4 3 5-2 3-5v-10l-10-18-6-11-1-4v-8l4-11 5-8 7-6z" fill="#FCFCFB"/>
<path transform="translate(913,1086)" d="m0 0 8 1 7 4 8 9 3 6-1 4-10 6-6 1-6-8-6-1h-2l-1 8 4 6 5 4 11 3 17 4 10 5 5 5 6 10 2 7v8l-5 8-8 7-8 4-13 2-10-4-7-9-3-6v-3l16-9 4 4 4 6 7-2v-6l-4-6-11-4-18-4-9-4-8-6-6-10-4-11v-8l4-6 9-8 10-5z" fill="#FCFCFA"/>
<path transform="translate(246,856)" d="m0 0h8l8 4 7 8 5 10 2 8-1 9-6 7-14 8-34 16-16 7-7 2h-9l-5-3-7-8-6-12-1-4v-9l6-9 13-8 6-3 4 2 7 13-1 4-12 6-3 3 2 5 1 1 9-1 37-18 14-7 3-1-1-5-3-3-7 1-10 5-4-1-7-14 1-5z" fill="#FCFCFB"/>
<path transform="translate(1116,277)" d="m0 0h8l8 4 9 8 6 10 1 3v10l-6 9-12 11-5-1-9-11-1-3 9-8h2l1-5-3-5h-5l-13 10-16 13-11 9-9 8-1 3 4 4h6l10-8 4-1 5 5 4 5 2 1v5l-13 10-12 6h-6l-11-7-8-9-6-10v-9l6-8 11-11 10-8 17-14 13-10z" fill="#FCFCFB"/>
<path transform="translate(150,488)" d="m0 0h11l18 4 1 3-5 17-7-1-10-2h-3l-2 4 1 4 4 3 34 10 27 6 2-3v-5l-4-3-14-4 1-8 3-11 4-1 18 6 8 5 4 7v10l-3 12-6 11-8 5h-10l-21-5-31-9-18-6-6-4-4-7v-12l5-15 6-8z" fill="#FCFCFB"/>
<path transform="translate(1130,866)" d="m0 0h9l16 5 2 3-8 15-4 1-5-2h-7l-2 6 5 5 6 2 10-1 16-7 12-4h8l13 5 6 4 7 8 1 2v9l-5 14-5 7-7 5-8 1-16-4-3-2 1-7 5-10 4-1 5 2 7-1 1-5-4-4-2-1h-9l-33 11h-9l-10-4-9-5-8-9-1-9 5-13 9-12z" fill="#FCFCFB"/>
<path transform="translate(195,370)" d="m0 0 5 1 13 10 17 12 18 13 19 14 11 8 1 5-11 20h-4l-41-12-55-17 1-5 8-14 5 1 29 11 21 7 21 8-4-4-20-12-10-7-22-14-10-7 2-6z" fill="#FCFCFB"/>
<path transform="translate(760,1228)" d="m0 0h11l-1 5-5 10-8 11-8 8-6 7-11 7-19 5-5 2-7 2h-20l-13-3-13-5-16-8-4-3-2-4-6-2-14-22 1-2 2 2 5-1 4 3 1 3 12 7 18-1 6-2h4l6-2h4v-2l12-2h8l5 2 8 6v4h-2l-1 6 6 1 6 2 2 2 7-1v-3l10-4 8-4 12-12 1-7v-4z" fill="#FB9A3C"/>
<path transform="translate(766,1374)" d="m0 0h6l3 25 8 70 3 25v7l-2 1-24 2-2-6-10-87-3-25v-10z" fill="#FCFCFB"/>
<path transform="translate(287,910)" d="m0 0 4 1 13 22 7 11-2 4-8 4-15 9-32 19-27 16-4 2-7-10-12-20-3-7 8-5 6-3 4 1 9 16 5-2 12-7-1-4-8-14 1-3 13-7 3 1 9 15 6-1 15-9h2l-7-11-5-9 9-6z" fill="#FCFCFB"/>
<path transform="translate(973,1050)" d="m0 0 5 5 7 11 8 11 12 18 10 14 15 22v5l-14 8-19 13-3-1-8-11 1-5 11-7 5-3-2-5-7-10-7 1-10 8h-4l-9-13 2-4 11-7 3-1-1-5-11-16-4 2-15 9-7-8-3-5 1-4 27-18z" fill="#FCFCFB"/>
<path transform="translate(1170,653)" d="m0 0h20l81 1 2 1v23l-1 20-18-1-1-1v-21l-21-1v21l-4 1-14-1-1-21-25-1v22l-1 1-18-1v-20z" fill="#FCFCFB"/>
<path transform="translate(1148,807)" d="m0 0 61 21 30 11 5 2-1 6-9 24-4 9-6-1-10-3-1-1 1-7 5-12-1-3-16-5h-2l-6 17-5 1-12-4-1-1v-6l5-11 1-5-9-2-9-3-7-1-3 12-3 7-9-2-8-3-1-3 14-36z" fill="#FCFCFB"/>
<path transform="translate(610,1228)" d="m0 0h142l6 1 1 8-3 5-12 12-15 6h-2v3l-3 2-5-1-2-2-5-1-7-2 1-4 1-2h2l-2-5-7-5-4-1h-10l-10 1v2l-14 4h-4l-2 1-18 1-12-7-2-4-3-2-6 1 5 9 6 9 3 3 4 2v2l3 1 3 3 16 8 15 6 11 2h26l-2 2-13 1-15-1-18-5-16-8-9-5-10-9-5-9-7-11-3-9z" fill="#831A72"/>
<path transform="translate(345,199)" d="m0 0 3 1 11 26 11 27 7 11 9 10 6 7v2h2l3 4-1 4-11 9-5-1-9-11-11-12-13-9-46-26-1-4 9-7 4-4 6 1 19 14 8 6 3 1-6-12-9-16-3-6 1-4z" fill="#FCFCFA"/>
<path transform="translate(1057,973)" d="m0 0 6 4 12 10 20 16 18 14 8 6 4-2 6-7 4 1 6 5 5 4-2 4-10 12-11 14-7 9h-3l-4-4-8-6 1-5 6-6 1-3-4-2-13-10-15-12-28-22-5-4 2-4 7-7z" fill="#FCFCFA"/>
<path transform="translate(933,133)" d="m0 0 5 2 23 11 15 8 2 4-5 9-3 4-5-1-10-4-2 6-12 24-12 22-10 21-17-8-1-5 10-18 13-26 7-12 6-11v-3l-12-6 1-5 6-10z" fill="#FCFCFB"/>
<path transform="translate(326,966)" d="m0 0 4 2 9 10 1 4-14 11-16 13-10 8-11 9-10 8h-2l1 5 6 6-1 5-12 9-7-6-18-22-7-9v-3l11-8 4-1 7 9 4-1 9-7 14-11 16-13 16-12 4-2z" fill="#FCFCFB"/>
<path transform="translate(246,297)" d="m0 0 4 2 36 27 17 13 5 3v2l6 2 2-4 10-11 11 6 4 3-2 5-9 10-10 13-5 6-9-6-13-10-19-14-30-23-10-7 1-4 9-11z" fill="#FCFCFB"/>
<path transform="translate(601,608)" d="m0 0 10 1 9 4 6 7 4 9 2 11v20l-3 14-5 10-5 4-7 3-5 1h-7v-83z" fill="#0000E8"/>
<path transform="translate(225,755)" d="m0 0 4 1 1 1 2 11v7l-66 14-29 6h-5l-3-9-1-11 28-6 60-12z" fill="#FCFCFA"/>
<path transform="translate(216,336)" d="m0 0 5 2 16 10 30 18 19 12 16 10 1 3-9 15-4-1-25-15-28-17-21-13-10-5v-5l8-11z" fill="#FCFCFB"/>
<path transform="translate(817,96)" d="m0 0 19 4-1 8-7 29-12 52-2 9-3 1-18-5 1-7 15-64 6-25z" fill="#FCFCFB"/>
<path transform="translate(1169,336)" d="m0 0 5 1 8 13v3l-18 10-15 10-22 13-19 12-12 7-4-4-7-10 1-5 21-12 19-12 26-16z" fill="#FCFCFB"/>
<path transform="translate(671,82)" d="m0 0h19l1 1 1 15 1 84-1 1h-20l-1-35-1-65z" fill="#FCFCFA"/>
<path transform="translate(158,443)" d="m0 0 6 1 81 30 10 4-1 6-5 13-6-1-30-11-40-15-19-7-1-1 1-7z" fill="#FCFCFB"/>
<path transform="translate(787,1216)" d="m0 0h2l1 5 3 2-1 13-3 4-2 6-1 5h-2l1 4h2l4-8 4-9 7-13 5-1 1 1v10l-3 9-6 14-7 13-9 11-11 1 1-6-2-1-1 2-11 6-9 10-4 2h-6l-3-2-1 6-1 1h-17l1-2 12-1 2-2-11-5 1-2 18 1-1-9 7 1 6 1v-10l-1-5 10-4 7-10 3-9 2-1 2-4h2l2-6 4-9z" fill="#0801BA"/>
<path transform="translate(850,1386)" d="m0 0h13l3 5 18 66-1 6-8 4h-6l-4-13-13-48-4-16v-3z" fill="#0000E7"/>
<path transform="translate(700,1097)" d="m0 0 11 2 18 6 16 8 10 4 6 5v2h2l4 5 4 4 1 4h2l4 6 1 3 4 2 1 11 6 2 1 1 1 14 3 3 3 1v5l-8 3-9 2-1-2 1-2v-11l-6-18-2-3-2 6-4 1-8-14-7-8 3-1h4v-2h2l-2-6-8-7-3-3-15-6-12-5v-2l-9-2-8-3v-2h-3z" fill="#0100BE"/>
<path transform="translate(625,1262)" d="m0 0 6 2 4 4 11 6 13 6 18 5 17 1h9l-3 1v2h9l7 2 1 2-3 2-9 1h-13l-24-1-5-2-6 1-9-4h-6l-5-8-10-8-3-2-1-9z" fill="#0000E6"/>
<path transform="translate(194,710)" d="m0 0h9l3 3 1 7-6 3-34 4-20 2h-10l-1-1v-8l3-3 22-3z" fill="#0000E5"/>
<path transform="translate(1187,399)" d="m0 0 5 1 4 6-1 3-41 21-17 8-4-1-5-6 4-5 29-15 21-10z" fill="#0000E7"/>
<path transform="translate(360,1028)" d="m0 0h5l4 4-1 5-12 14-15 16-15 15-4 2-3-2v-2l-3-1 1-5 11-13 7-7 7-8 16-17z" fill="#0000E8"/>
<path transform="translate(1242,595)" d="m0 0h8l1 1v9l-6 3-36 5-9 1h-13l-3-9 2-2z" fill="#0000E7"/>
<path transform="translate(689,1125)" d="m0 0 7 1 5 5 3 7v13l-4 5-9 2h-9l-5-5-2-4v-13l4-7 5-3z" fill="#7F1976"/>
<path transform="translate(1179,765)" d="m0 0 11 2 48 10 5 3-1 5-3 4-13-1-43-9-6-2v-9z" fill="#0000E8"/>
<path transform="translate(500,135)" d="m0 0h5l5 8 11 26 9 22-1 3-6 3-5-1-9-21-11-26-3-8v-4z" fill="#0000C4"/>
<path transform="translate(708,1284)" d="m0 0 1 2 13 1 12 2v1h-11l11 6-3 3-12 1 11 1-3 2-31 1-26-1-5-2-10-2-7-3 1-2h3l1-3 6 2 4-1 5 2 24 1h13l9-1 2-2-7-2-9-1v-2z" fill="#0000BE"/>
<path transform="translate(764,1112)" d="m0 0h9l7 3 8 8 8 12 8 16 6 16-1 4h-8l-3-3-6-16-6-11-7-11-11-12-4-4z" fill="#FC9F45"/>
<path transform="translate(613,1111)" d="m0 0 5 1-6 7-7 7-8 11-10 19-4 12-4 2h-7l1-9 6-15 9-16 8-10 8-7z" fill="#FCA34C"/>
<path transform="translate(803,1224)" d="m0 0 5 1v10l-3 9-6 14-7 13-9 11-11 1 1-2h3v-8l5-8 5-9 4-7 4-10 5-8 3-6z" fill="#831A73"/>
<path transform="translate(576,1227)" d="m0 0 5 1 2 7 5 12 6 12 5 8 5 5 7 9 4 3v4l-5 1-10-5-8-8-8-14-8-18-1-3v-13z" fill="#FA993C"/>
<path transform="translate(574,117)" d="m0 0 4 4 7 20 15 44-1 4-2-2-7 5-2-2-13-65z" fill="#0000E5"/>
<path transform="translate(969,1359)" d="m0 0 5 5 9 19 10 19 3 5-1 3-10 3h-3l-6-21-7-28z" fill="#0001E4"/>
<path transform="translate(733,108)" d="m0 0 2 2 7 37v6h-2l1 8-8 11-2 1-1-3v-14l2-43z" fill="#0000C2"/>
<path transform="translate(722,1111)" d="m0 0 9 1 14 6 6 3 10 10v5h-2v2l-4 1-5-2-8-7-14-8-4-2-3-6h2z" fill="#0301E0"/>
<path transform="translate(657,1401)" d="m0 0h8l7 2 1 2v14l-1 7-5 3-10 1-1-1z" fill="#0000E8"/>
<path transform="translate(82,711)" d="m0 0 5 2 16 10 8 6 1 9-6-1-20-8-2-2z" fill="#FCFAF7"/>
<path transform="translate(700,1097)" d="m0 0 11 2 18 6 16 8 9 5 14 14 1 5h-4l-1-3-3-1-5-6-5-4-3-3-15-6-12-5v-2l-9-2-8-3v-2h-3z" fill="#831A73"/>
<path transform="translate(836,850)" d="m0 0h5l-3 1 1 5 6 3v1h-65l1-6-2-1h7l5 1h29z" fill="#0601BD"/>
<path transform="translate(1212,381)" d="m0 0h15l15 1 6 11v4l-20-4-11-3-5-6z" fill="#FCFCFB"/>
<path transform="translate(652,1081)" d="m0 0h13l28 1 27-1h16l2 2-10 2h-19l-24 1-5 2-9 2v4l-1 3h-6l2-5v-4l-10-3z" fill="#0000C6"/>
<path transform="translate(1206,600)" d="m0 0h8l1 4-4 1-1 3h-2l3 3-2 2-9 1h-13l-3-9 2-2z" fill="#0000C5"/>
<path transform="translate(455,1141)" d="m0 0h9l1 4-10 19-4 5-4-2-4-5 6-12z" fill="#0000E6"/>
<path transform="translate(794,1244)" d="m0 0 2 4 3 1-1 7-4 8-3 4h-2l-2 7-4 5-5 3h-6l1-2h3v-6h2l1-4 2-1 5-10h2l1-4z" fill="#FB9A3C"/>
<path transform="translate(1067,251)" d="m0 0h2l-1 4-10 13-9 10-4 5-5-1v-2l-4-2 5-6 14-11 10-9z" fill="#0000E7"/>
<path transform="translate(1117,954)" d="m0 0 7 4 13 11 11 9 1 3-6-2-10-5-19-10-3-3z" fill="#0000E7"/>
<path transform="translate(434,169)" d="m0 0 5 5 10 15 9 14-1 3-8 3-2-2-7-20-6-16z" fill="#0000E5"/>
<path transform="translate(1051,1066)" d="m0 0 5 2 10 11 2 4-6 4-4 1-8-7-4-6 2-6z" fill="#0000E8"/>
<path transform="translate(390,1109)" d="m0 0 7 1 3 2-2 5-9 12-2 2-4-1-3-4 1-7 6-8z" fill="#0000E6"/>
<path transform="translate(1008,196)" d="m0 0 4 2 3 4-1 5-7 9-2 2h-5l-6-4 4-7 8-10z" fill="#0000E7"/>
<path transform="translate(648,1225)" d="m0 0h91l3 1h23l-1 2-4 1-101-2-11-1z" fill="#0000C2"/>
<path transform="translate(182,643)" d="m0 0h3v7l13 1v1h-50l-6-1 2-2 23-4z" fill="#0000C1"/>
<path transform="translate(620,108)" d="m0 0 2 1 5 27 2 13v9l-6 3-1-1-1-25-1-5z" fill="#0000C2"/>
<path transform="translate(610,1260)" d="m0 0 3 2v2l8 1 3 8 6 4 5 3 5 4 2 5h6l4 2v3l-6 1-5-3-9-6-1-4-10-5-8-8-4-6z" fill="#831A73"/>
<path transform="translate(782,45)" d="m0 0 14 1 45 9 36 9 24 7 4 4-9-2-34-10-28-7-38-7-14-2z" fill="#FCA148"/>
<path transform="translate(675,1254)" d="m0 0 11 1 7 2 2 5-8 3h-17l-3-3 1-4z" fill="#831A73"/>
<path transform="translate(1257,369)" d="m0 0 3 1 17 33 1 7-7-1-4-9-1-7-3-7v-2l-3-1-2-8-2-5z" fill="#0401C1"/>
<path transform="translate(457,1371)" d="m0 0h1l-1 9-14 36-2-4-2-7 17-33z" fill="#0000DE"/>
<path transform="translate(773,1251)" d="m0 0h2v8l-4 10-3 1-1 3h-2l-2 4-3 3h-2l-1 4h-3l1-7 3-7h2l1-3 5-5z" fill="#0001E9"/>
<path transform="translate(518,174)" d="m0 0 6 2 6 16-3 3-4 2-5-1-2-8v-11z" fill="#0000E7"/>
<path transform="translate(575,1233)" d="m0 0h1l2 10 6 12 8 17 8 9 2 1 1-2 3-1-6-9 1-2 9 12 5 4v4l-5 1-10-5-8-8-8-14-8-18-1-3z" fill="#8E266D"/>
<path transform="translate(769,1166)" d="m0 0h2l1 3-1 1h-162l1-3 2 1h157z" fill="#FCFCFA"/>
<path transform="translate(689,1126)" d="m0 0 5 2 5 6 1 2v12l-5 6-5 1-7-2-3-1-2-4v-7l4-10h2l-1 8-2 3v5l2 4h13l1-7-3-8-2-2h-5v-2h2z" fill="#FCAE62"/>
<path transform="translate(497,136)" d="m0 0 4 1 8 15 1 10-4 1v-3l-3 1-8-20v-4z" fill="#0000E8"/>
<path transform="translate(397,1354)" d="m0 0h2l-3 21-4 23-2 3-2-9 1-15 7-21z" fill="#0000CA"/>
<path transform="translate(761,122)" d="m0 0h1v33l-1 7-3-4-3-17v-12l6 1z" fill="#0000C1"/>
<path transform="translate(592,166)" d="m0 0 2 1 6 18-1 4-2-2-7 5-2-2-1-13 5-3z" fill="#0000C4"/>
<path transform="translate(716,1228)" d="m0 0h36l4 2-7 3h-16l-9-2-36-1v-1z" fill="#FC9B3C"/>
<path transform="translate(1102,731)" d="m0 0h1l1 9-7 35-2 6h-4l4-17 6-32z" fill="#0000C9"/>
<path transform="translate(618,1248)" d="m0 0 4 2 5 9 6 3v2l3 1 3 3 16 8 15 6 11 2h26l-2 2-13 1-15-1-18-5-16-8-9-5-10-9-5-9z" fill="#831A73"/>
<path transform="translate(1058,861)" d="m0 0h4l-1 8-5 8-5 5-4 10-4 2-1-4 15-27z" fill="#0100C2"/>
<path transform="translate(787,1223)" d="m0 0 4 1-1 10h-2v3h-2l-1 4-3 7-4 4-3-3 2-7 4-4 5-13z" fill="#831A73"/>
<path transform="translate(610,1228)" d="m0 0 62 1 10 2v1h-64l-2 1-2-3z" fill="#FC9B3C"/>
<path transform="translate(584,1238)" d="m0 0 1 2 3 1v2h2l3 11 5 5 8 4 1 7 1 3-1 2-3-1-3-5-5-5-6-10-6-13z" fill="#1404B6"/>
<path transform="translate(772,1145)" d="m0 0 5 1 6 13v2h2l2 5v13l-2 2-2-6-1-7-3-4-3-8v-4l-3-3z" fill="#831A73"/>
<path transform="translate(691,1309)" d="m0 0h9l6 2-4 3-4 1h-16l-25-1v-1l14-1 9-2z" fill="#1E06B4"/>
<path transform="translate(722,1111)" d="m0 0 9 1 14 6-4 1h-5l-1 5 4 2h-3l-12-6-3-6h2z" fill="#0000C2"/>
<path transform="translate(1115 1e3)" d="m0 0 4 1 5 3 3 11 2-1-2 5-4 4-5-2-8-7h3l2 2 4 1v-11l-3-1-2-4z" fill="#0000C1"/>
<path transform="translate(823,161)" d="m0 0h2l2 5v7l-7 14-3 1v-8l4-17h2z" fill="#0000C3"/>
<path transform="translate(596,127)" d="m0 0 4 2 2 5 2 2 2-1 1 5v22l-2-3-5-16-4-13z" fill="#0000DF"/>
<path transform="translate(180,929)" d="m0 0 4 2 6 4-2 1 4 7 13 4 1 4-4 2h-5l-7-7-7-9-1-5-2-1z" fill="#0000C0"/>
<path transform="translate(852,1050)" d="m0 0 1 2 3 1 20 10 7 4v1l-7-1-24-10-3-1v-2l-4-1z" fill="#0601BA"/>
<path transform="translate(684,1136)" d="m0 0h1l1 10h3v2l4-1-1-5 3-1 1-4 2 7-1 5-1 2-10 1-3-1-3-4v-5l3-3z" fill="#1C06CF"/>
<path transform="translate(660,1295)" d="m0 0 23 1 7 2v2l3 1h-19l-14-2-2-3z" fill="#831A73"/>
<path transform="translate(702,1170)" d="m0 0h55l7 1-2 2-56-1z" fill="#0000BE"/>
<path transform="translate(684,1133)" d="m0 0h8l3 3v5l-2 2v4l-4 1v-2h-3l-2-4h-1v-7z" fill="#430DAC"/>
<path transform="translate(1122,957)" d="m0 0 8 6 13 11 6 5v2l-6-2-10-5-2-5-3-3-6-7z" fill="#0000E8"/>
<path transform="translate(120,600)" d="m0 0 58 3v1h-59l-2 2 1-5z" fill="#0000CA"/>
<path transform="translate(281,731)" d="m0 0h1l6 32h-3l-2-5-2-3-2-16v-7z" fill="#0801C1"/>
<path transform="translate(1243,811)" d="m0 0 2 1-2 4v7l-1 1-8-1-2-2 1-5 2-1 1-3z" fill="#0000BE"/>
<path transform="translate(672,80)" d="m0 0 19 1 2 2 1 8v12l-1 15h-1l-2-35h-19l-1 5h-1v-6z" fill="#0000C9"/>
<path transform="translate(55,557)" d="m0 0 3 1-2 22-2 5-1 7h-2l-1-6z" fill="#1905B3"/>
<path transform="translate(878,130)" d="m0 0 5 1 2 2v6l-1 7-1 2-2-1-1-5-5-4v-6z" fill="#0000C6"/>
<path transform="translate(596,1173)" d="m0 0h2l1 8-11 4h-2v-6l4-4z" fill="#831A73"/>
<path transform="translate(718,1182)" d="m0 0h6l1 1v9l-1 1h-7l-2-2 1-6z" fill="#FCFAF7"/>
<path transform="translate(657,1181)" d="m0 0 5 1 1 3v7l-1 1h-7l-2-4 3-7z" fill="#FCFAF7"/>
<path transform="translate(771,1252)" d="m0 0v3l-7 11-6 5-2 6v5h-2l-1-9-1-5 10-4 8-11z" fill="#0000BE"/>
<path transform="translate(696,1179)" d="m0 0h8l1 5-2 5h-7l-1-1v-8z" fill="#FCFAF7"/>
<path transform="translate(498,203)" d="m0 0 3 3 2 5v4l-5 1v2h-2l2 5-5-5-6-7v-2l5 2v2h6l-1-7z" fill="#0000C5"/>
<path transform="translate(393,957)" d="m0 0 4 2 8 8v3h-2l-1 3h-6l-2-4 2-3h2l-3-6-2-1z" fill="#0100C2"/>
<path transform="translate(676,1179)" d="m0 0h7l1 1v8l-1 1h-7l-1-1v-8z" fill="#FCFBF9"/>
<path transform="translate(594,1223)" d="m0 0 4 1v12l-1 6-3-1-2-7 1-10z" fill="#831A73"/>
<path transform="translate(787,1216)" d="m0 0h2l1 5 3 2v6l-2 1v-6l-4 1-5 13-5 6h-2l1-4h2l2-6 4-9z" fill="#0000BF"/>
<path transform="translate(804,1226)" d="m0 0 3 1v7l-2 6-1 2-6-2v-3l2-1 3-9z" fill="#FC9B3C"/>
<path transform="translate(1278,947)" d="m0 0 1 3-8 17-2 1v-11l3-7 5-1z" fill="#4C36AB"/>
<path transform="translate(240,319)" d="m0 0 5 2 12 9 14 11 8 6-1 2-14-10-4-4-3-1v-2l-4-2-10-8z" fill="#0000CE"/>
<path transform="translate(620,1205)" d="m0 0 5 1 1 1v5l-3 3h-5l-2-3v-5z" fill="#FCFAF7"/>
<path transform="translate(984,1041)" d="m0 0 5 5 1 2h-6l-6 3 1 5-5-5-3-2 8-4h2l1-3z" fill="#0300BF"/>
<path transform="translate(240,1021)" d="m0 0 5 5 9 10v2h-2l-2-2-6-2-3-4z" fill="#0000C3"/>
<path transform="translate(620,108)" d="m0 0 2 1 3 15v5l-4 4-1-3z" fill="#0000E5"/>
<path transform="translate(1336,712)" d="m0 0 2 4v15l-3 2v-5h-2v-9z" fill="#2412B1"/>
<path transform="translate(738,1192)" d="m0 0h6l1 1v7l-1 1h-7l-1-1 1-7z" fill="#FCFBF9"/>
<path transform="translate(636,1192)" d="m0 0h6l1 9-5 1-4-2v-5z" fill="#FCFBF9"/>
<path transform="translate(1196,606)" d="m0 0 5 2v3l-1 3h-13l-1-2 3-3h3z" fill="#0001E9"/>
<path transform="translate(1320,528)" d="m0 0h2l4 17v9l-4-5-1-5v-7l-1-2z" fill="#0000CA"/>
<path transform="translate(979,1121)" d="m0 0h4l1 7-2 7-5-5-2-3z" fill="#0000BF"/>
<path transform="translate(328,853)" d="m0 0 3 1 2 4 5 1v1l-13 1 1 4h-2l-3-6h3l-1-3z" fill="#0901BC"/>
<path transform="translate(757,1205)" d="m0 0 5 1 1 6-2 2-7-1-1-5z" fill="#FCFAF6"/>
<path transform="translate(876,64)" d="m0 0 25 7 4 4-9-2-22-7z" fill="#FCA651"/>
<path transform="translate(499,1036)" d="m0 0 5 1 19 10 1 2-12-2-4-4v-2l-4-1-5-3z" fill="#0300C5"/>
<path transform="translate(2,608)" d="m0 0h1l1 12-2 12-2 1v-23z" fill="#FDFDFC"/>
<path transform="translate(888,1553)" d="m0 0h8v2l-18 3-14 1 4-2 6-2 9-1z" fill="#FDFDFC"/>
<path transform="translate(575,1233)" d="m0 0h1l2 10 13 26-1 3-6-10-8-18-1-3z" fill="#831A73"/>
<path transform="translate(961,1144)" d="m0 0 3 3 4 9 2 5 1 7-2 4h-3v-12l-4-11z" fill="#0000C7"/>
<path transform="translate(769,1166)" d="m0 0h2l1 3-1 1h-34l2-2h30z" fill="#FCFAF6"/>
<path transform="translate(655,524)" d="m0 0h12l1 5-7 1-1-1h-5l-1-4z" fill="#0000BE"/>
<path transform="translate(1066,289)" d="m0 0v3l-4 9-3 3h-4l1-4 6-9z" fill="#0000C5"/>
<path transform="translate(457,1371)" d="m0 0h1l-1 9-4 10-3-1-1-3z" fill="#0000E1"/>
<path transform="translate(593,1116)" d="m0 0h6l-2 4-7 9h-2l1-4-1-4z" fill="#0A02BA"/>
<path transform="translate(720,1081)" d="m0 0h16l2 2-10 2h-11l1-3z" fill="#0000C3"/>
<path transform="translate(200,960)" d="m0 0 3 4 6 11 7 11v2h-2l-6-8-8-16z" fill="#0000CA"/>
<path transform="translate(1029,1007)" d="m0 0 4 5 15 16v2h2l4 6-4-2-14-15-8-9z" fill="#0401CB"/>
<path transform="translate(921,1157)" d="m0 0h9l-4 4-10 5-3-1h2l2-5z" fill="#0000C6"/>
<path transform="translate(635,1269)" d="m0 0 4 1 16 8 12 5-3 1-11-3-13-8-5-3z" fill="#0000C7"/>
<path transform="translate(742,1226)" d="m0 0h23l-1 2-4 1-26-1v-1z" fill="#1705C3"/>
<path transform="translate(1050,876)" d="m0 0 1 3-2 9-3 5-3 1-1-4z" fill="#00c"/>
<path transform="translate(1188,504)" d="m0 0m-1 1m-2 1 4 1-1 4-14 5-2-1 11-8z" fill="#0000E0"/>
<path transform="translate(386,1023)" d="m0 0 2 1v2l7-1 3 2-2 4-4 2-1 2-5-10z" fill="#0000C0"/>
<path transform="translate(236,424)" d="m0 0h8l9 6v2l-11-3-5-2z" fill="#0000D2"/>
<path transform="translate(689,1126)" d="m0 0 5 2 5 6-1 2-5-1-4-1h-2v-2h2z" fill="#FC9E42"/>
<path transform="translate(687,1136)" d="m0 0h3l3 7v4l-4 1v-2h-3z" fill="#F8DAC1"/>
<path transform="translate(618,1128)" d="m0 0 5 3-2 4-5 1h-5l2-4z" fill="#831A73"/>
<path transform="translate(130,867)" d="m0 0 2 1 3 6v5l-4 1-2-2v-10z" fill="#0000BE"/>
<path transform="translate(792,190)" d="m0 0 1 4 16 3 2 1v2l-4 1-8-2v-2h-6l-1-1z" fill="#0000C4"/>
<path transform="translate(1121,958)" d="m0 0 3 2v2l4 2 1 4 4 2-1 2-4-1-2-1-1-5-4-1-1-5z" fill="#0000C5"/>
<path transform="translate(157,647)" d="m0 0h6v1l-6 2 4 2h-13l-6-1 2-2z" fill="#0001E9"/>
<path transform="translate(723,1289)" d="m0 0 11 1 2 1-1 6-13-6z" fill="#831A73"/>
<path transform="translate(1096,767)" d="m0 0h1v8l-2 6h-4l3-13z" fill="#0401C4"/>
<path transform="translate(761,132)" d="m0 0h1v23l-1 7-3-4-1-10 2 1 1 3z" fill="#0001E9"/>
<path transform="translate(598,1243)" d="m0 0h3l4 7 1 6h-3l-5-9z" fill="#831A73"/>
<path transform="translate(471,1078)" d="m0 0v3l-10 13-2 1v-6l4-2v-2z" fill="#0000BE"/>
<path transform="translate(1082,171)" d="m0 0 4 1 13 10v2l-5-1-6-5v-2l-4-2v-2z" fill="#0501C4"/>
<path transform="translate(570,1066)" d="m0 0 10 1 5 3v1l-9 1-6-5z" fill="#0701BE"/>
<path transform="translate(308,1097)" d="m0 0 5 2 10 5-2 1v2l-4-1-3-1v-2h-2l-4-4z" fill="#0000C8"/>
<path transform="translate(406,1081)" d="m0 0h2l-1 5-2 6 3 3 3 1-1 3-7-6-2-4z" fill="#00c"/>
<path transform="translate(441,999)" d="m0 0 11 7v2h-7l-3-2-2-5z" fill="#0D02BB"/>
<path transform="translate(616,612)" d="m0 0 4 1 6 7 1 5-1-2h-5l-4-9z" fill="#0000C3"/>
<path transform="translate(1371,583)" d="m0 0 2 4 3 13v12l-2-4-3-18z" fill="#FDFDFC"/>
<path transform="translate(262,453)" d="m0 0h3v2l3 1-7 11-2-3z" fill="#0000BE"/>
<path transform="translate(1e3 169)" d="m0 0 6 2 10 8 7 6h-3l-14-10-6-5z" fill="#0200C9"/>
<path transform="translate(445,97)" d="m0 0h8l5 2-1 3-6 1-6-5z" fill="#0000BE"/>
<path transform="translate(1375,747)" d="m0 0h1v17l-1 2-4-1z" fill="#FDFDFC"/>
<path transform="translate(805,50)" d="m0 0 14 2 10 2 1 2-11-1-15-3z" fill="#2006B0"/>
<path transform="translate(960,703)" d="m0 0h2l7 12 1 4-3-1v-2l-3-1-4-8z" fill="#1003BC"/>
<path transform="translate(456,645)" d="m0 0h1l-1 7-6 5-4 3 2-5 4-7z" fill="#0D02BB"/>
<path transform="translate(222,613)" d="m0 0h2l2 4v8l-3 3-1-2z" fill="#0000BE"/>
<path transform="translate(596,127)" d="m0 0 4 2 2 5 2 2-1 4h-3l-4-10z" fill="#0000C5"/>
<path transform="translate(733,108)" d="m0 0 2 2 2 10-1 4-2-4-1 11h-1v-18z" fill="#0001E9"/>
<path transform="translate(773,1373)" d="m0 0 6 1 1 2-1 4-4 2-2-1z" fill="#0000BE"/>
<path transform="translate(1332,592)" d="m0 0h2v15h-2l-2-8v-5z" fill="#0000C3"/>
<path transform="translate(1106,424)" d="m0 0h2l2 6-1 4-4-4-7-3 2-2z" fill="#0000BF"/>
<path transform="translate(584,1238)" d="m0 0 1 2 3 1v2h2l3 12-1 2-8-16z" fill="#4B0F95"/>
<path transform="translate(974,971)" d="m0 0 2 1-2 4-4 2-1 3-5 2 1-4z" fill="#0200C8"/>
<path transform="translate(370,949)" d="m0 0 4 2 2 4v3h-6l-1-5z" fill="#0000BE"/>
<path transform="translate(397,1354)" d="m0 0h2l-2 16h-2l-2-3 1-5z" fill="#0001E9"/>
<path transform="translate(341,239)" d="m0 0 5 1 3 5v3l-4-1-4-3v-3l-2-1z" fill="#0000D5"/>
<path transform="translate(716,81)" d="m0 0h11v1l-9 1-2 18h-1v-19z" fill="#0000CA"/>
<path transform="translate(916,1546)" d="m0 0h7l-4 2-7 2v1l-9 1-1-3z" fill="#FCE1C5"/>
<path transform="translate(1008,253)" d="m0 0 1 4-2 4-5 3h-2l1-4 5-5z" fill="#0000C4"/>
<path transform="translate(728,1474)" d="m0 0 10 1v4h-8l-2-1z" fill="#0000BE"/>
<path transform="translate(696,1089)" d="m0 0 3 4v2l12 3-4 1-9-3-4-2-1 3-3-1 3-3z" fill="#0000BE"/>
<path transform="translate(332,1131)" d="m0 0 5 1-2 5-3 3h-2v-6z" fill="#0000BE"/>
<path transform="translate(642,1111)" d="m0 0 5 5h-2l-1 2-8-1 1-3z" fill="#831A73"/>
<path transform="translate(50,756)" d="m0 0h1l3 21-3 1-1-7z" fill="#0000CD"/>
<path transform="translate(0,724)" d="m0 0 2 4 1 16-2 1-1-4z" fill="#FDFDFC"/>
<path transform="translate(379,1329)" d="m0 0h1l-1 8-3 6h-1v-8l2-5z" fill="#0000C7"/>
<path transform="translate(771,1282)" d="m0 0 7 1-2 4-6 1-2-4z" fill="#831A73"/>
<path transform="translate(810,1164)" d="m0 0 2 3-1 4-4 3-5 1-2-4 9-1v-5z" fill="#1804B3"/>
<path transform="translate(695,700)" d="m0 0h1v8l-5 5 1-9z" fill="#0000C4"/>
<path transform="translate(391,128)" d="m0 0h6l3 2-2 4-5-1z" fill="#0000BE"/>
<path transform="translate(459,82)" d="m0 0 6 1-3 4h-7l-1-3z" fill="#0000C8"/>
<path transform="translate(494,1135)" d="m0 0 2 1v7l-6 1 1-6z" fill="#0000C0"/>
<path transform="translate(262,336)" d="m0 0 4 1 13 10-1 2-14-10z" fill="#0000CA"/>
<path transform="translate(1207,472)" d="m0 0h6l-3 3-8 5-2-1 2-4z" fill="#0000E6"/>
<path transform="translate(511,73)" d="m0 0h8l-1 5-2 6h-1l-2-9z" fill="#0000BF"/>
<path transform="translate(1272,753)" d="m0 0 6 1 1 2-2 3-5-1-1-4z" fill="#0000BE"/>
<path transform="translate(1248,491)" d="m0 0 2 1 3 7 2 3v5l-1-2h-2l-4-10z" fill="#0000C7"/>
<path transform="translate(528,1050)" d="m0 0 6 1 7 3v1h-11z" fill="#0B02BC"/>
<path transform="translate(185,826)" d="m0 0 5 1v4l-5 1-4-5z" fill="#0000BE"/>
<path transform="translate(675,560)" d="m0 0 4 2 6 8 1 4h-2l-7-10z" fill="#0000CB"/>
<path transform="translate(443,1405)" d="m0 0 2 1-1 8-2 2-2-9z" fill="#0000C0"/>
<path transform="translate(695,1137)" d="m0 0 2 4-1 7-5 1 1-7 3-1z" fill="#0301E5"/>
<path transform="translate(918,1015)" d="m0 0 1 4-6 4-5-1 5-4z" fill="#1F06AE"/>
<path transform="translate(733,1297)" d="m0 0v3l-1 1h-14l1-2 12-1z" fill="#831A73"/>
<path transform="translate(576,1225)" d="m0 0h5l3 6v7l-2-3-1-6-6-1z" fill="#831A73"/>
<path transform="translate(696,1143)" d="m0 0 2 1-1 5-1 2-10 1 2-3 7-1z" fill="#66148C"/>
<path transform="translate(606,1144)" d="m0 0h8l-1 5-5-1z" fill="#831A73"/>
<path transform="translate(690,1133)" d="m0 0 4 2 1 1v5l-3 1-2-4z" fill="#6E1685"/>
<path transform="translate(977,158)" d="m0 0 3 1-2 4-3 5-3 1 2-6z" fill="#0000CA"/>
<path transform="translate(722,1111)" d="m0 0 7 1 1 2h-3l-1 3-3 1-2-4h2z" fill="#0001E9"/>
<path transform="translate(694,1094)" d="m0 0 4 1 2 2-4 2h-8l2-2 3-1z" fill="#831A73"/>
<path transform="translate(987,376)" d="m0 0 4 2 9 11h-3l-10-11z" fill="#0000D0"/>
<path transform="translate(990,279)" d="m0 0 7 1-5 7-3-2z" fill="#0000C4"/>
<path transform="translate(1008,196)" d="m0 0 3 1-4 8-5 1 3-5z" fill="#0000C2"/>
<path transform="translate(577,1142)" d="m0 0 3 2-2 6-1 2h-2v-7z" fill="#0D02BC"/>
<path transform="translate(695,1135)" d="m0 0 5 1v7h-3z" fill="#FCE2C8"/>
<path transform="translate(602,1074)" d="m0 0h9l7 2v1h-9l-7-2z" fill="#0000CA"/>
<path transform="translate(1244,384)" d="m0 0 3 2 3 4v5l-5-5z" fill="#0000C5"/>
<path transform="translate(302,337)" d="m0 0 4 2 8 5v2l-4-1-2-1v-2l-5-2z" fill="#00c"/>
<path transform="translate(434,169)" d="m0 0 5 5 1 3h-2l1 5-2-2-3-9z" fill="#0001E9"/>
<path transform="translate(169,1032)" d="m0 0 5 1-1 7-4-3z" fill="#0000BE"/>
<path transform="translate(1075,946)" d="m0 0 1 3-5 8h-2l2-7z" fill="#0000C8"/>
<path transform="translate(86,448)" d="m0 0 2 1v5l-1 1-3 1-1 6-1-4z" fill="#7F4281"/>
<path transform="translate(330,258)" d="m0 0 5 1 8 5-1 2-12-6z" fill="#0000CD"/>
<path transform="translate(116,621)" d="m0 0h8l3 2-8 2-3-1z" fill="#0000C9"/>
<path transform="translate(983,228)" d="m0 0 4 1-1 4h-6l2-4z" fill="#0401CF"/>
<path transform="translate(1032,136)" d="m0 0 5 2 4 2-1 3-5-2-3-3z" fill="#0000CA"/>
<path transform="translate(677,41)" d="m0 0 14 1-1 2h-13l-3-2z" fill="#0000BE"/>
<path transform="translate(797,1260)" d="m0 0 1 3-2 7-4 1 2-5z" fill="#0000C2"/>
<path transform="translate(1102,1167)" d="m0 0h2l-1 3-7 6-3-1h2l2-4z" fill="#0000C9"/>
<path transform="translate(897,1140)" d="m0 0 5 1 9 4-1 3-10-5z" fill="#0000CE"/>
<path transform="translate(1176,340)" d="m0 0h2l6 8v3l-3-1-5-8z" fill="#0000C7"/>
<path transform="translate(249,297)" d="m0 0 5 2 7 6-3 1-9-7z" fill="#0000CB"/>
<path transform="translate(245,295)" d="m0 0 2 1-9 11v-3l6-8z" fill="#0000C7"/>
<path transform="translate(354,213)" d="m0 0 4 5 2 5-1 4-5-11z" fill="#0000C9"/>
<path transform="translate(629)" d="m0 0h11v3h-9z" fill="#FDFDFC"/>
<path transform="translate(107,1044)" d="m0 0 3 1 3 5-1 2z" fill="#FDFDFC"/>
<path transform="translate(1146,1201)" d="m0 0 3 1 1 4h-2v-2h-2z" fill="#FDFDFC"/>
<path transform="translate(259,137)" d="m0 0 3 1-1 3h-3z" fill="#FDFDFC"/>
<path transform="translate(1096,1484)" d="m0 0 4 1-7 1z" fill="#FDFDFC"/>
<path transform="translate(1275,1282)" d="m0 0h2v3h-3z" fill="#FDFDFC"/>
<path transform="translate(195,1218)" d="m0 0 3 1-1 2h-2z" fill="#FDFDFC"/>
<path transform="translate(251,130)" d="m0 0h2v3l-3-1z" fill="#FDFDFC"/>
<path transform="translate(113,1052)" d="m0 0 3 3-2 1z" fill="#FDFDFC"/>
<path transform="translate(131,1402)" d="m0 0 2 2-2 1z" fill="#FDFDFC"/>
<path transform="translate(1203,210)" d="m0 0 2 1-1 2z" fill="#FDFDFC"/>
<path transform="translate(303,1493)" d="m0 0 3 1z" fill="#FDFDFC"/>
<path transform="translate(174,1422)" d="m0 0h2l-1 2z" fill="#FDFDFC"/>
<path transform="translate(203,1227)" d="m0 0 2 2h-2z" fill="#FDFDFC"/>
<path transform="translate(117,1060)" d="m0 0h2l-1 2z" fill="#FDFDFC"/>
<path transform="translate(68 1e3)" d="m0 0 1 2-2-1z" fill="#FDFDFC"/>
<path transform="translate(1323,387)" d="m0 0h2l-1 2z" fill="#FDFDFC"/>
<path transform="translate(622,2)" d="m0 0 3 1z" fill="#FDFDFC"/>
<path transform="translate(915,1549)" d="m0 0 2 1z" fill="#FDFDFC"/>
<path transform="translate(919,1548)" d="m0 0 2 1z" fill="#FDFDFC"/>
<path transform="translate(306,1494)" d="m0 0 2 1z" fill="#FDFDFC"/>
<path transform="translate(1079,1492)" d="m0 0 2 1z" fill="#FDFDFC"/>
<path transform="translate(297,1490)" d="m0 0 2 1z" fill="#FDFDFC"/>
<path transform="translate(181,1426)" d="m0 0 2 1z" fill="#FDFDFC"/>
<path transform="translate(166,1415)" d="m0 0 2 1z" fill="#FDFDFC"/>
<path transform="translate(75,1019)" d="m0 0" fill="#FDFDFC"/>
<path transform="translate(44,387)" d="m0 0" fill="#FDFDFC"/>
<path transform="translate(1275,298)" d="m0 0" fill="#FDFDFC"/>
<path transform="translate(1159,179)" d="m0 0 2 1z" fill="#FDFDFC"/>
<path transform="translate(1082,1491)" d="m0 0" fill="#FDFDFC"/>
<path transform="translate(1085,1490)" d="m0 0" fill="#FDFDFC"/>
<path transform="translate(1092,1486)" d="m0 0" fill="#FDFDFC"/>
<path transform="translate(1100,1483)" d="m0 0" fill="#FDFDFC"/>
<path transform="translate(1103,1482)" d="m0 0" fill="#FDFDFC"/>
<path transform="translate(1181,1436)" d="m0 0" fill="#FDFDFC"/>
<path transform="translate(183,1427)" d="m0 0" fill="#FDFDFC"/>
<path transform="translate(183,1273)" d="m0 0" fill="#FDFDFC"/>
<path transform="translate(1148,1215)" d="m0 0" fill="#FDFDFC"/>
<path transform="translate(1147,1214)" d="m0 0" fill="#FDFDFC"/>
<path transform="translate(1148,1195)" d="m0 0" fill="#FDFDFC"/>
<path transform="translate(1164,1170)" d="m0 0" fill="#FDFDFC"/>
<path transform="translate(1226,1107)" d="m0 0" fill="#FDFDFC"/>
<path transform="translate(119,1062)" d="m0 0" fill="#FDFDFC"/>
<path transform="translate(116,1058)" d="m0 0" fill="#FDFDFC"/>
<path transform="translate(115,1057)" d="m0 0" fill="#FDFDFC"/>
<path transform="translate(101,1037)" d="m0 0" fill="#FDFDFC"/>
<path transform="translate(1307,1019)" d="m0 0" fill="#FDFDFC"/>
<path transform="translate(109,304)" d="m0 0" fill="#FDFDFC"/>
<path transform="translate(259,142)" d="m0 0" fill="#FDFDFC"/>
<path transform="translate(284,129)" d="m0 0" fill="#FDFDFC"/>
<path transform="translate(435,42)" d="m0 0" fill="#FDFDFC"/>
</svg>
